<svg xmlns="http://www.w3.org/2000/svg" width="1200" height="1800" viewBox="0 0 1200 1800">
<defs>
  <linearGradient id="base" x1="0" y1="0" x2="1" y2="1">
    <stop offset="0" stop-color="#6a3419"/>
    <stop offset=".35" stop-color="#3e1b0d"/>
    <stop offset=".7" stop-color="#5b2a14"/>
    <stop offset="1" stop-color="#2a1108"/>
  </linearGradient>
  <radialGradient id="light" cx=".36" cy=".25" r=".75">
    <stop offset="0" stop-color="#d78342" stop-opacity=".36"/>
    <stop offset=".42" stop-color="#7b3b1e" stop-opacity=".08"/>
    <stop offset="1" stop-color="#000" stop-opacity=".55"/>
  </radialGradient>
  <filter id="grain">
    <feTurbulence type="fractalNoise" baseFrequency=".012 .11" numOctaves="3" seed="17"/>
    <feColorMatrix values=".32 0 0 0 .05  0 .18 0 0 .02  0 0 .08 0 0  0 0 0 .58 0"/>
    <feBlend mode="multiply" in2="SourceGraphic"/>
  </filter>
</defs>
<rect width="1200" height="1800" fill="url(#base)"/>
<g opacity=".38" fill="none" stroke-linecap="round">
  <path d="M-60 160 C160 90 360 220 620 150 S1040 70 1270 190" stroke="#1d0904" stroke-width="18"/>
  <path d="M-80 410 C200 300 410 470 650 390 S980 310 1290 455" stroke="#210b05" stroke-width="14"/>
  <path d="M-40 710 C190 620 430 780 690 690 S1050 590 1260 735" stroke="#1a0804" stroke-width="20"/>
  <path d="M-70 1040 C180 930 450 1110 760 1005 S1050 940 1290 1080" stroke="#220b05" stroke-width="16"/>
  <path d="M-60 1370 C210 1260 500 1450 790 1340 S1090 1280 1290 1430" stroke="#1d0904" stroke-width="18"/>
  <path d="M-40 1660 C220 1580 440 1730 720 1650 S1010 1580 1280 1700" stroke="#210b05" stroke-width="15"/>
</g>
<rect width="1200" height="1800" fill="url(#light)"/>
<rect width="1200" height="1800" filter="url(#grain)" opacity=".85"/>
</svg>